<?xml version="1.0" encoding="us-ascii" standalone="no"?><svg xmlns="http://www.w3.org/2000/svg" xmlns:xlink="http://www.w3.org/1999/xlink" contentStyleType="text/css" height="525px" preserveAspectRatio="none" style="width:2208px;height:525px;background:#FFFFFF;" version="1.1" viewBox="0 0 2208 525" width="2208px" zoomAndPan="magnify"><defs/><g><!--cluster ???-?????????--><g id="cluster_&#1042;&#1077;&#1073;-&#1080;&#1085;&#1090;&#1077;&#1088;&#1092;&#1077;&#1081;&#1089;"><path d="M8.5,6 L120.5,6 A3.75,3.75 0 0 1 123,8.5 L130,29.6094 L745.5,29.6094 A2.5,2.5 0 0 1 748,32.1094 L748,103.5 A2.5,2.5 0 0 1 745.5,106 L8.5,106 A2.5,2.5 0 0 1 6,103.5 L6,8.5 A2.5,2.5 0 0 1 8.5,6 " fill="none" style="stroke:#000000;stroke-width:1.5;"/><line style="stroke:#000000;stroke-width:1.5;" x1="6" x2="130" y1="29.6094" y2="29.6094"/><text fill="#000000" font-family="sans-serif" font-size="14" font-weight="bold" lengthAdjust="spacing" textLength="111" x="10" y="22.5332">&#1042;&#1077;&#1073;-&#1080;&#1085;&#1090;&#1077;&#1088;&#1092;&#1077;&#1081;&#1089;</text></g><!--cluster API ??? ?????????--><g id="cluster_API &#1076;&#1083;&#1103; &#1087;&#1072;&#1088;&#1090;&#1085;&#1077;&#1088;&#1086;&#1074;"><path d="M1342.5,410 L1474.5,410 A3.75,3.75 0 0 1 1477,412.5 L1484,433.6094 L1585.5,433.6094 A2.5,2.5 0 0 1 1588,436.1094 L1588,507.5 A2.5,2.5 0 0 1 1585.5,510 L1342.5,510 A2.5,2.5 0 0 1 1340,507.5 L1340,412.5 A2.5,2.5 0 0 1 1342.5,410 " fill="none" style="stroke:#000000;stroke-width:1.5;"/><line style="stroke:#000000;stroke-width:1.5;" x1="1340" x2="1484" y1="433.6094" y2="433.6094"/><text fill="#000000" font-family="sans-serif" font-size="14" font-weight="bold" lengthAdjust="spacing" textLength="131" x="1344" y="426.5332">API &#1076;&#1083;&#1103; &#1087;&#1072;&#1088;&#1090;&#1085;&#1077;&#1088;&#1086;&#1074;</text></g><!--cluster ???? ??????--><g id="cluster_&#1041;&#1072;&#1079;&#1072; &#1076;&#1072;&#1085;&#1085;&#1099;&#1093;"><path d="M638.5,294 L729.5,294 A3.75,3.75 0 0 1 732,296.5 L739,317.6094 L1305.5,317.6094 A2.5,2.5 0 0 1 1308,320.1094 L1308,515.5 A2.5,2.5 0 0 1 1305.5,518 L638.5,518 A2.5,2.5 0 0 1 636,515.5 L636,296.5 A2.5,2.5 0 0 1 638.5,294 " fill="none" style="stroke:#000000;stroke-width:1.5;"/><line style="stroke:#000000;stroke-width:1.5;" x1="636" x2="739" y1="317.6094" y2="317.6094"/><text fill="#000000" font-family="sans-serif" font-size="14" font-weight="bold" lengthAdjust="spacing" textLength="90" x="640" y="310.5332">&#1041;&#1072;&#1079;&#1072; &#1076;&#1072;&#1085;&#1085;&#1099;&#1093;</text></g><!--cluster ?????????????? ??????--><g id="cluster_&#1048;&#1085;&#1090;&#1077;&#1075;&#1088;&#1072;&#1094;&#1080;&#1086;&#1085;&#1085;&#1099;&#1077; &#1084;&#1086;&#1076;&#1091;&#1083;&#1080;"><path d="M1433.5,146 L1612.5,146 A3.75,3.75 0 0 1 1615,148.5 L1622,169.6094 L2198.5,169.6094 A2.5,2.5 0 0 1 2201,172.1094 L2201,243.5 A2.5,2.5 0 0 1 2198.5,246 L1433.5,246 A2.5,2.5 0 0 1 1431,243.5 L1431,148.5 A2.5,2.5 0 0 1 1433.5,146 " fill="none" style="stroke:#000000;stroke-width:1.5;"/><line style="stroke:#000000;stroke-width:1.5;" x1="1431" x2="1622" y1="169.6094" y2="169.6094"/><text fill="#000000" font-family="sans-serif" font-size="14" font-weight="bold" lengthAdjust="spacing" textLength="178" x="1435" y="162.5332">&#1048;&#1085;&#1090;&#1077;&#1075;&#1088;&#1072;&#1094;&#1080;&#1086;&#1085;&#1085;&#1099;&#1077; &#1084;&#1086;&#1076;&#1091;&#1083;&#1080;</text></g><!--cluster ????????????? ??????--><g id="cluster_&#1040;&#1085;&#1072;&#1083;&#1080;&#1090;&#1080;&#1095;&#1077;&#1089;&#1082;&#1080;&#1081; &#1084;&#1086;&#1076;&#1091;&#1083;&#1100;"><path d="M567.5,138 L734.5,138 A3.75,3.75 0 0 1 737,140.5 L744,161.6094 L1396.5,161.6094 A2.5,2.5 0 0 1 1399,164.1094 L1399,251.5 A2.5,2.5 0 0 1 1396.5,254 L567.5,254 A2.5,2.5 0 0 1 565,251.5 L565,140.5 A2.5,2.5 0 0 1 567.5,138 " fill="none" style="stroke:#000000;stroke-width:1.5;"/><line style="stroke:#000000;stroke-width:1.5;" x1="565" x2="744" y1="161.6094" y2="161.6094"/><text fill="#000000" font-family="sans-serif" font-size="14" font-weight="bold" lengthAdjust="spacing" textLength="166" x="569" y="154.5332">&#1040;&#1085;&#1072;&#1083;&#1080;&#1090;&#1080;&#1095;&#1077;&#1089;&#1082;&#1080;&#1081; &#1084;&#1086;&#1076;&#1091;&#1083;&#1100;</text></g><!--cluster ??????????? ?????--><g id="cluster_&#1055;&#1083;&#1072;&#1085;&#1080;&#1088;&#1086;&#1074;&#1097;&#1080;&#1082; &#1079;&#1072;&#1076;&#1072;&#1095;"><path d="M1680.5,6 L1824.5,6 A3.75,3.75 0 0 1 1827,8.5 L1834,29.6094 L1953.5,29.6094 A2.5,2.5 0 0 1 1956,32.1094 L1956,103.5 A2.5,2.5 0 0 1 1953.5,106 L1680.5,106 A2.5,2.5 0 0 1 1678,103.5 L1678,8.5 A2.5,2.5 0 0 1 1680.5,6 " fill="none" style="stroke:#000000;stroke-width:1.5;"/><line style="stroke:#000000;stroke-width:1.5;" x1="1678" x2="1834" y1="29.6094" y2="29.6094"/><text fill="#000000" font-family="sans-serif" font-size="14" font-weight="bold" lengthAdjust="spacing" textLength="143" x="1682" y="22.5332">&#1055;&#1083;&#1072;&#1085;&#1080;&#1088;&#1086;&#1074;&#1097;&#1080;&#1082; &#1079;&#1072;&#1076;&#1072;&#1095;</text></g><!--entity ?????????????? ???????--><g id="elem_&#1056;&#1077;&#1076;&#1072;&#1082;&#1090;&#1080;&#1088;&#1086;&#1074;&#1072;&#1085;&#1080;&#1077; &#1090;&#1086;&#1074;&#1072;&#1088;&#1086;&#1074;"><rect fill="#F1F1F1" height="47.6094" rx="2.5" ry="2.5" style="stroke:#181818;stroke-width:0.5;" width="206" x="271" y="42"/><rect fill="#F1F1F1" height="10" style="stroke:#181818;stroke-width:0.5;" width="15" x="457" y="47"/><rect fill="#F1F1F1" height="2" style="stroke:#181818;stroke-width:0.5;" width="4" x="455" y="49"/><rect fill="#F1F1F1" height="2" style="stroke:#181818;stroke-width:0.5;" width="4" x="455" y="53"/><text fill="#000000" font-family="sans-serif" font-size="14" lengthAdjust="spacing" textLength="166" x="286" y="76.5332">&#1056;&#1077;&#1076;&#1072;&#1082;&#1090;&#1080;&#1088;&#1086;&#1074;&#1072;&#1085;&#1080;&#1077; &#1090;&#1086;&#1074;&#1072;&#1088;&#1086;&#1074;</text></g><!--entity ???????????? ??????????--><g id="elem_&#1060;&#1086;&#1088;&#1084;&#1080;&#1088;&#1086;&#1074;&#1072;&#1085;&#1080;&#1077; &#1086;&#1090;&#1095;&#1077;&#1090;&#1085;&#1086;&#1089;&#1090;&#1080;"><rect fill="#F1F1F1" height="47.6094" rx="2.5" ry="2.5" style="stroke:#181818;stroke-width:0.5;" width="219" x="512.5" y="42"/><rect fill="#F1F1F1" height="10" style="stroke:#181818;stroke-width:0.5;" width="15" x="711.5" y="47"/><rect fill="#F1F1F1" height="2" style="stroke:#181818;stroke-width:0.5;" width="4" x="709.5" y="49"/><rect fill="#F1F1F1" height="2" style="stroke:#181818;stroke-width:0.5;" width="4" x="709.5" y="53"/><text fill="#000000" font-family="sans-serif" font-size="14" lengthAdjust="spacing" textLength="179" x="527.5" y="76.5332">&#1060;&#1086;&#1088;&#1084;&#1080;&#1088;&#1086;&#1074;&#1072;&#1085;&#1080;&#1077; &#1086;&#1090;&#1095;&#1077;&#1090;&#1085;&#1086;&#1089;&#1090;&#1080;</text></g><!--entity ?????? ??????? ????????--><g id="elem_&#1051;&#1080;&#1095;&#1085;&#1099;&#1081; &#1082;&#1072;&#1073;&#1080;&#1085;&#1077;&#1090; &#1087;&#1072;&#1088;&#1090;&#1085;&#1077;&#1088;&#1072;"><rect fill="#F1F1F1" height="47.6094" rx="2.5" ry="2.5" style="stroke:#181818;stroke-width:0.5;" width="214" x="22" y="42"/><rect fill="#F1F1F1" height="10" style="stroke:#181818;stroke-width:0.5;" width="15" x="216" y="47"/><rect fill="#F1F1F1" height="2" style="stroke:#181818;stroke-width:0.5;" width="4" x="214" y="49"/><rect fill="#F1F1F1" height="2" style="stroke:#181818;stroke-width:0.5;" width="4" x="214" y="53"/><text fill="#000000" font-family="sans-serif" font-size="14" lengthAdjust="spacing" textLength="174" x="37" y="76.5332">&#1051;&#1080;&#1095;&#1085;&#1099;&#1081; &#1082;&#1072;&#1073;&#1080;&#1085;&#1077;&#1090; &#1087;&#1072;&#1088;&#1090;&#1085;&#1077;&#1088;&#1072;</text></g><!--entity ????????? ?????? ???????--><g id="elem_&#1055;&#1086;&#1083;&#1091;&#1095;&#1077;&#1085;&#1080;&#1077; &#1089;&#1087;&#1080;&#1089;&#1082;&#1072; &#1090;&#1086;&#1074;&#1072;&#1088;&#1086;&#1074;"><rect fill="#F1F1F1" height="47.6094" rx="2.5" ry="2.5" style="stroke:#181818;stroke-width:0.5;" width="216" x="1356" y="446"/><rect fill="#F1F1F1" height="10" style="stroke:#181818;stroke-width:0.5;" width="15" x="1552" y="451"/><rect fill="#F1F1F1" height="2" style="stroke:#181818;stroke-width:0.5;" width="4" x="1550" y="453"/><rect fill="#F1F1F1" height="2" style="stroke:#181818;stroke-width:0.5;" width="4" x="1550" y="457"/><text fill="#000000" font-family="sans-serif" font-size="14" lengthAdjust="spacing" textLength="176" x="1371" y="480.5332">&#1055;&#1086;&#1083;&#1091;&#1095;&#1077;&#1085;&#1080;&#1077; &#1089;&#1087;&#1080;&#1089;&#1082;&#1072; &#1090;&#1086;&#1074;&#1072;&#1088;&#1086;&#1074;</text></g><!--entity ??????--><g id="elem_&#1058;&#1086;&#1074;&#1072;&#1088;&#1099;"><rect fill="#F1F1F1" height="47.6094" rx="2.5" ry="2.5" style="stroke:#181818;stroke-width:0.5;" width="90" x="660" y="338"/><rect fill="#F1F1F1" height="10" style="stroke:#181818;stroke-width:0.5;" width="15" x="730" y="343"/><rect fill="#F1F1F1" height="2" style="stroke:#181818;stroke-width:0.5;" width="4" x="728" y="345"/><rect fill="#F1F1F1" height="2" style="stroke:#181818;stroke-width:0.5;" width="4" x="728" y="349"/><text fill="#000000" font-family="sans-serif" font-size="14" lengthAdjust="spacing" textLength="50" x="675" y="372.5332">&#1058;&#1086;&#1074;&#1072;&#1088;&#1099;</text></g><!--entity ??????--><g id="elem_&#1047;&#1072;&#1082;&#1072;&#1079;&#1099;"><rect fill="#F1F1F1" height="47.6094" rx="2.5" ry="2.5" style="stroke:#181818;stroke-width:0.5;" width="86" x="785" y="338"/><rect fill="#F1F1F1" height="10" style="stroke:#181818;stroke-width:0.5;" width="15" x="851" y="343"/><rect fill="#F1F1F1" height="2" style="stroke:#181818;stroke-width:0.5;" width="4" x="849" y="345"/><rect fill="#F1F1F1" height="2" style="stroke:#181818;stroke-width:0.5;" width="4" x="849" y="349"/><text fill="#000000" font-family="sans-serif" font-size="14" lengthAdjust="spacing" textLength="46" x="800" y="372.5332">&#1047;&#1072;&#1082;&#1072;&#1079;&#1099;</text></g><!--entity ??????? ? ??????????????--><g id="elem_&#1056;&#1072;&#1089;&#1095;&#1077;&#1090;&#1099; &#1089; &#1084;&#1072;&#1088;&#1082;&#1077;&#1090;&#1087;&#1083;&#1077;&#1081;&#1089;&#1072;&#1084;&#1080;"><rect fill="#F1F1F1" height="47.6094" rx="2.5" ry="2.5" style="stroke:#181818;stroke-width:0.5;" width="223" x="906.5" y="338"/><rect fill="#F1F1F1" height="10" style="stroke:#181818;stroke-width:0.5;" width="15" x="1109.5" y="343"/><rect fill="#F1F1F1" height="2" style="stroke:#181818;stroke-width:0.5;" width="4" x="1107.5" y="345"/><rect fill="#F1F1F1" height="2" style="stroke:#181818;stroke-width:0.5;" width="4" x="1107.5" y="349"/><text fill="#000000" font-family="sans-serif" font-size="14" lengthAdjust="spacing" textLength="183" x="921.5" y="372.5332">&#1056;&#1072;&#1089;&#1095;&#1077;&#1090;&#1099; &#1089; &#1084;&#1072;&#1088;&#1082;&#1077;&#1090;&#1087;&#1083;&#1077;&#1081;&#1089;&#1072;&#1084;&#1080;</text></g><!--entity ????????--><g id="elem_&#1044;&#1086;&#1089;&#1090;&#1072;&#1074;&#1082;&#1080;"><rect fill="#F1F1F1" height="47.6094" rx="2.5" ry="2.5" style="stroke:#181818;stroke-width:0.5;" width="100" x="1165" y="338"/><rect fill="#F1F1F1" height="10" style="stroke:#181818;stroke-width:0.5;" width="15" x="1245" y="343"/><rect fill="#F1F1F1" height="2" style="stroke:#181818;stroke-width:0.5;" width="4" x="1243" y="345"/><rect fill="#F1F1F1" height="2" style="stroke:#181818;stroke-width:0.5;" width="4" x="1243" y="349"/><text fill="#000000" font-family="sans-serif" font-size="14" lengthAdjust="spacing" textLength="60" x="1180" y="372.5332">&#1044;&#1086;&#1089;&#1090;&#1072;&#1074;&#1082;&#1080;</text></g><!--entity ???--><g id="elem_&#1054;&#1042;&#1061;"><rect fill="#F1F1F1" height="47.6094" rx="2.5" ry="2.5" style="stroke:#181818;stroke-width:0.5;" width="68" x="794" y="446"/><rect fill="#F1F1F1" height="10" style="stroke:#181818;stroke-width:0.5;" width="15" x="842" y="451"/><rect fill="#F1F1F1" height="2" style="stroke:#181818;stroke-width:0.5;" width="4" x="840" y="453"/><rect fill="#F1F1F1" height="2" style="stroke:#181818;stroke-width:0.5;" width="4" x="840" y="457"/><text fill="#000000" font-family="sans-serif" font-size="14" lengthAdjust="spacing" textLength="28" x="809" y="480.5332">&#1054;&#1042;&#1061;</text></g><!--entity ????--><g id="elem_&#1062;&#1077;&#1085;&#1099;"><rect fill="#F1F1F1" height="47.6094" rx="2.5" ry="2.5" style="stroke:#181818;stroke-width:0.5;" width="76" x="897" y="446"/><rect fill="#F1F1F1" height="10" style="stroke:#181818;stroke-width:0.5;" width="15" x="953" y="451"/><rect fill="#F1F1F1" height="2" style="stroke:#181818;stroke-width:0.5;" width="4" x="951" y="453"/><rect fill="#F1F1F1" height="2" style="stroke:#181818;stroke-width:0.5;" width="4" x="951" y="457"/><text fill="#000000" font-family="sans-serif" font-size="14" lengthAdjust="spacing" textLength="36" x="912" y="480.5332">&#1062;&#1077;&#1085;&#1099;</text></g><!--entity ????????????--><g id="elem_&#1052;&#1072;&#1088;&#1082;&#1077;&#1090;&#1087;&#1083;&#1077;&#1081;&#1089;&#1099;"><rect fill="#F1F1F1" height="47.6094" rx="2.5" ry="2.5" style="stroke:#181818;stroke-width:0.5;" width="137" x="1008.5" y="446"/><rect fill="#F1F1F1" height="10" style="stroke:#181818;stroke-width:0.5;" width="15" x="1125.5" y="451"/><rect fill="#F1F1F1" height="2" style="stroke:#181818;stroke-width:0.5;" width="4" x="1123.5" y="453"/><rect fill="#F1F1F1" height="2" style="stroke:#181818;stroke-width:0.5;" width="4" x="1123.5" y="457"/><text fill="#000000" font-family="sans-serif" font-size="14" lengthAdjust="spacing" textLength="97" x="1023.5" y="480.5332">&#1052;&#1072;&#1088;&#1082;&#1077;&#1090;&#1087;&#1083;&#1077;&#1081;&#1089;&#1099;</text></g><!--entity ???? ?????? ?? ?????????????--><g id="elem_&#1057;&#1073;&#1086;&#1088; &#1076;&#1072;&#1085;&#1085;&#1099;&#1093; &#1080;&#1079; &#1084;&#1072;&#1088;&#1082;&#1077;&#1090;&#1087;&#1083;&#1077;&#1081;&#1089;&#1086;&#1074;"><rect fill="#F1F1F1" height="47.6094" rx="2.5" ry="2.5" style="stroke:#181818;stroke-width:0.5;" width="249" x="1935.5" y="182"/><rect fill="#F1F1F1" height="10" style="stroke:#181818;stroke-width:0.5;" width="15" x="2164.5" y="187"/><rect fill="#F1F1F1" height="2" style="stroke:#181818;stroke-width:0.5;" width="4" x="2162.5" y="189"/><rect fill="#F1F1F1" height="2" style="stroke:#181818;stroke-width:0.5;" width="4" x="2162.5" y="193"/><text fill="#000000" font-family="sans-serif" font-size="14" lengthAdjust="spacing" textLength="209" x="1950.5" y="216.5332">&#1057;&#1073;&#1086;&#1088; &#1076;&#1072;&#1085;&#1085;&#1099;&#1093; &#1080;&#1079; &#1084;&#1072;&#1088;&#1082;&#1077;&#1090;&#1087;&#1083;&#1077;&#1081;&#1089;&#1086;&#1074;</text></g><!--entity ???? ?????? ?? 1?--><g id="elem_&#1057;&#1073;&#1086;&#1088; &#1076;&#1072;&#1085;&#1085;&#1099;&#1093; &#1080;&#1079; 1&#1057;"><rect fill="#F1F1F1" height="47.6094" rx="2.5" ry="2.5" style="stroke:#181818;stroke-width:0.5;" width="166" x="1734" y="182"/><rect fill="#F1F1F1" height="10" style="stroke:#181818;stroke-width:0.5;" width="15" x="1880" y="187"/><rect fill="#F1F1F1" height="2" style="stroke:#181818;stroke-width:0.5;" width="4" x="1878" y="189"/><rect fill="#F1F1F1" height="2" style="stroke:#181818;stroke-width:0.5;" width="4" x="1878" y="193"/><text fill="#000000" font-family="sans-serif" font-size="14" lengthAdjust="spacing" textLength="126" x="1749" y="216.5332">&#1057;&#1073;&#1086;&#1088; &#1076;&#1072;&#1085;&#1085;&#1099;&#1093; &#1080;&#1079; 1&#1057;</text></g><!--entity ???? ?????? ?? ????? ????????--><g id="elem_&#1057;&#1073;&#1086;&#1088; &#1076;&#1072;&#1085;&#1085;&#1099;&#1093; &#1089;&#1086; &#1089;&#1083;&#1091;&#1078;&#1073; &#1076;&#1086;&#1089;&#1090;&#1072;&#1074;&#1082;&#1080;"><rect fill="#F1F1F1" height="47.6094" rx="2.5" ry="2.5" style="stroke:#181818;stroke-width:0.5;" width="251" x="1447.5" y="182"/><rect fill="#F1F1F1" height="10" style="stroke:#181818;stroke-width:0.5;" width="15" x="1678.5" y="187"/><rect fill="#F1F1F1" height="2" style="stroke:#181818;stroke-width:0.5;" width="4" x="1676.5" y="189"/><rect fill="#F1F1F1" height="2" style="stroke:#181818;stroke-width:0.5;" width="4" x="1676.5" y="193"/><text fill="#000000" font-family="sans-serif" font-size="14" lengthAdjust="spacing" textLength="211" x="1462.5" y="216.5332">&#1057;&#1073;&#1086;&#1088; &#1076;&#1072;&#1085;&#1085;&#1099;&#1093; &#1089;&#1086; &#1089;&#1083;&#1091;&#1078;&#1073; &#1076;&#1086;&#1089;&#1090;&#1072;&#1074;&#1082;&#1080;</text></g><!--entity ??????????????--><g id="elem_&#1056;&#1077;&#1085;&#1090;&#1072;&#1073;&#1077;&#1083;&#1100;&#1085;&#1086;&#1089;&#1090;&#1100;"><rect fill="#F1F1F1" height="47.6094" rx="2.5" ry="2.5" style="stroke:#181818;stroke-width:0.5;" width="150" x="1225" y="182"/><rect fill="#F1F1F1" height="10" style="stroke:#181818;stroke-width:0.5;" width="15" x="1355" y="187"/><rect fill="#F1F1F1" height="2" style="stroke:#181818;stroke-width:0.5;" width="4" x="1353" y="189"/><rect fill="#F1F1F1" height="2" style="stroke:#181818;stroke-width:0.5;" width="4" x="1353" y="193"/><text fill="#000000" font-family="sans-serif" font-size="14" lengthAdjust="spacing" textLength="110" x="1240" y="216.5332">&#1056;&#1077;&#1085;&#1090;&#1072;&#1073;&#1077;&#1083;&#1100;&#1085;&#1086;&#1089;&#1090;&#1100;</text></g><!--entity ABC-??????--><g id="elem_ABC-&#1072;&#1085;&#1072;&#1083;&#1080;&#1079;"><rect fill="#F1F1F1" height="47.6094" rx="2.5" ry="2.5" style="stroke:#181818;stroke-width:0.5;" width="119" x="1070.5" y="182"/><rect fill="#F1F1F1" height="10" style="stroke:#181818;stroke-width:0.5;" width="15" x="1169.5" y="187"/><rect fill="#F1F1F1" height="2" style="stroke:#181818;stroke-width:0.5;" width="4" x="1167.5" y="189"/><rect fill="#F1F1F1" height="2" style="stroke:#181818;stroke-width:0.5;" width="4" x="1167.5" y="193"/><text fill="#000000" font-family="sans-serif" font-size="14" lengthAdjust="spacing" textLength="79" x="1085.5" y="216.5332">ABC-&#1072;&#1085;&#1072;&#1083;&#1080;&#1079;</text></g><!--entity ???????-??????--><g id="elem_&#1055;&#1088;&#1080;&#1073;&#1099;&#1083;&#1100;-&#1091;&#1073;&#1099;&#1090;&#1082;&#1080;"><rect fill="#F1F1F1" height="47.6094" rx="2.5" ry="2.5" style="stroke:#181818;stroke-width:0.5;" width="150" x="885" y="182"/><rect fill="#F1F1F1" height="10" style="stroke:#181818;stroke-width:0.5;" width="15" x="1015" y="187"/><rect fill="#F1F1F1" height="2" style="stroke:#181818;stroke-width:0.5;" width="4" x="1013" y="189"/><rect fill="#F1F1F1" height="2" style="stroke:#181818;stroke-width:0.5;" width="4" x="1013" y="193"/><text fill="#000000" font-family="sans-serif" font-size="14" lengthAdjust="spacing" textLength="110" x="900" y="216.5332">&#1055;&#1088;&#1080;&#1073;&#1099;&#1083;&#1100;-&#1091;&#1073;&#1099;&#1090;&#1082;&#1080;</text></g><!--entity ?????? ????????????? ??????--><g id="elem_&#1055;&#1088;&#1086;&#1095;&#1080;&#1077; &#1072;&#1085;&#1072;&#1083;&#1080;&#1090;&#1080;&#1095;&#1077;&#1089;&#1082;&#1080;&#1077; &#1086;&#1090;&#1095;&#1077;&#1090;&#1099;"><rect fill="#F1F1F1" height="47.6094" rx="2.5" ry="2.5" style="stroke:#181818;stroke-width:0.5;" width="242" x="608" y="182"/><rect fill="#F1F1F1" height="10" style="stroke:#181818;stroke-width:0.5;" width="15" x="830" y="187"/><rect fill="#F1F1F1" height="2" style="stroke:#181818;stroke-width:0.5;" width="4" x="828" y="189"/><rect fill="#F1F1F1" height="2" style="stroke:#181818;stroke-width:0.5;" width="4" x="828" y="193"/><text fill="#000000" font-family="sans-serif" font-size="14" lengthAdjust="spacing" textLength="202" x="623" y="216.5332">&#1055;&#1088;&#1086;&#1095;&#1080;&#1077; &#1072;&#1085;&#1072;&#1083;&#1080;&#1090;&#1080;&#1095;&#1077;&#1089;&#1082;&#1080;&#1077; &#1086;&#1090;&#1095;&#1077;&#1090;&#1099;</text></g><!--entity ????????????? ?????? ??????--><g id="elem_&#1055;&#1077;&#1088;&#1080;&#1086;&#1076;&#1080;&#1095;&#1077;&#1089;&#1082;&#1080;&#1081; &#1080;&#1084;&#1087;&#1086;&#1088;&#1090; &#1076;&#1072;&#1085;&#1085;&#1099;&#1093;"><rect fill="#F1F1F1" height="47.6094" rx="2.5" ry="2.5" style="stroke:#181818;stroke-width:0.5;" width="246" x="1694" y="42"/><rect fill="#F1F1F1" height="10" style="stroke:#181818;stroke-width:0.5;" width="15" x="1920" y="47"/><rect fill="#F1F1F1" height="2" style="stroke:#181818;stroke-width:0.5;" width="4" x="1918" y="49"/><rect fill="#F1F1F1" height="2" style="stroke:#181818;stroke-width:0.5;" width="4" x="1918" y="53"/><text fill="#000000" font-family="sans-serif" font-size="14" lengthAdjust="spacing" textLength="206" x="1709" y="76.5332">&#1055;&#1077;&#1088;&#1080;&#1086;&#1076;&#1080;&#1095;&#1077;&#1089;&#1082;&#1080;&#1081; &#1080;&#1084;&#1087;&#1086;&#1088;&#1090; &#1076;&#1072;&#1085;&#1085;&#1099;&#1093;</text></g><!--link ?????????????? ??????? to ??????--><g id="link_&#1056;&#1077;&#1076;&#1072;&#1082;&#1090;&#1080;&#1088;&#1086;&#1074;&#1072;&#1085;&#1080;&#1077; &#1090;&#1086;&#1074;&#1072;&#1088;&#1086;&#1074;_&#1058;&#1086;&#1074;&#1072;&#1088;&#1099;"><path d="M395.0049,95.046 C425.5349,134.966 488.44,212.93 557,270 C589.11,296.73 624.5317,318.2804 655.1217,335.0904 " fill="none" id="&#1056;&#1077;&#1076;&#1072;&#1082;&#1090;&#1080;&#1088;&#1086;&#1074;&#1072;&#1085;&#1080;&#1077; &#1090;&#1086;&#1074;&#1072;&#1088;&#1086;&#1074;-&#1058;&#1086;&#1074;&#1072;&#1088;&#1099;" style="stroke:#181818;stroke-width:1.0;"/><polygon fill="#181818" points="391.36,90.28,393.6501,99.8589,394.3974,94.2516,400.0047,94.999,391.36,90.28" style="stroke:#181818;stroke-width:1.0;"/><polygon fill="#181818" points="660.38,337.98,654.4189,330.14,655.998,335.572,650.5661,337.1512,660.38,337.98" style="stroke:#181818;stroke-width:1.0;"/></g><!--link ???????????? ?????????? to ????????????? ??????--><g id="link_&#1060;&#1086;&#1088;&#1084;&#1080;&#1088;&#1086;&#1074;&#1072;&#1085;&#1080;&#1077; &#1086;&#1090;&#1095;&#1077;&#1090;&#1085;&#1086;&#1089;&#1090;&#1080;_&#1040;&#1085;&#1072;&#1083;&#1080;&#1090;&#1080;&#1095;&#1077;&#1089;&#1082;&#1080;&#1081; &#1084;&#1086;&#1076;&#1091;&#1083;&#1100;"><path d="M607.53,90.15 C602.04,99.72 596.12,111.12 592,122 C590.3763,126.285 588.8672,130.7494 587.4688,135.2868 C587.2941,135.854 587.121,136.4223 586.9497,136.9916 C586.864,137.2762 588.4897,131.8102 588.4049,132.0953 " fill="none" id="&#1060;&#1086;&#1088;&#1084;&#1080;&#1088;&#1086;&#1074;&#1072;&#1085;&#1080;&#1077; &#1086;&#1090;&#1095;&#1077;&#1090;&#1085;&#1086;&#1089;&#1090;&#1080;-to-&#1040;&#1085;&#1072;&#1083;&#1080;&#1090;&#1080;&#1095;&#1077;&#1089;&#1082;&#1080;&#1081; &#1084;&#1086;&#1076;&#1091;&#1083;&#1100;" style="stroke:#181818;stroke-width:1.0;"/><polygon fill="#181818" points="586.6939,137.8462,593.0942,130.3604,588.1197,133.0538,585.4264,128.0792,586.6939,137.8462" style="stroke:#181818;stroke-width:1.0;"/></g><!--link ???? ?????? to ????????? ?????? ???????--><g id="link_&#1041;&#1072;&#1079;&#1072; &#1076;&#1072;&#1085;&#1085;&#1099;&#1093;_&#1055;&#1086;&#1083;&#1091;&#1095;&#1077;&#1085;&#1080;&#1077; &#1089;&#1087;&#1080;&#1089;&#1082;&#1072; &#1090;&#1086;&#1074;&#1072;&#1088;&#1086;&#1074;"><path d="M1308.2289,368.3193 C1308.3314,368.3855 1308.4348,368.4523 1308.539,368.5196 C1308.7474,368.6543 1308.9591,368.7911 1309.1742,368.9301 C1310.8949,370.042 1312.8282,371.2914 1314.9489,372.6619 C1323.4316,378.1438 1334.9106,385.5625 1347.7563,393.865 C1373.4475,410.47 1399.5665,427.3521 1423.1515,442.6021 " fill="none" id="&#1041;&#1072;&#1079;&#1072; &#1076;&#1072;&#1085;&#1085;&#1099;&#1093;-to-&#1055;&#1086;&#1083;&#1091;&#1095;&#1077;&#1085;&#1080;&#1077; &#1089;&#1087;&#1080;&#1089;&#1082;&#1072; &#1090;&#1086;&#1074;&#1072;&#1088;&#1086;&#1074;" style="stroke:#181818;stroke-width:1.0;"/><polygon fill="#181818" points="1428.19,445.86,1422.8042,437.6142,1423.9913,443.1451,1418.4604,444.3322,1428.19,445.86" style="stroke:#181818;stroke-width:1.0;"/></g><!--link ???? ?????? ?? ????????????? to ???? ??????--><g id="link_&#1057;&#1073;&#1086;&#1088; &#1076;&#1072;&#1085;&#1085;&#1099;&#1093; &#1080;&#1079; &#1084;&#1072;&#1088;&#1082;&#1077;&#1090;&#1087;&#1083;&#1077;&#1081;&#1089;&#1086;&#1074;_&#1041;&#1072;&#1079;&#1072; &#1076;&#1072;&#1085;&#1085;&#1099;&#1093;"><path d="M2016.4,230.05 C1988.88,243.66 1952.2,260.1 1918,270 C1785.705,308.31 1632.575,331.005 1511.8413,344.15 C1451.4744,350.7225 1399.2066,354.9075 1361.6917,357.4631 C1342.9343,358.7409 1327.8651,359.6114 1317.3159,360.1693 C1314.6786,360.3088 1312.3238,360.4287 1310.2645,360.5306 C1309.7497,360.5561 1309.2533,360.5804 1308.7756,360.6036 C1308.5368,360.6153 1314.2957,360.3375 1314.0662,360.3486 " fill="none" id="&#1057;&#1073;&#1086;&#1088; &#1076;&#1072;&#1085;&#1085;&#1099;&#1093; &#1080;&#1079; &#1084;&#1072;&#1088;&#1082;&#1077;&#1090;&#1087;&#1083;&#1077;&#1081;&#1089;&#1086;&#1074;-to-&#1041;&#1072;&#1079;&#1072; &#1076;&#1072;&#1085;&#1085;&#1099;&#1093;" style="stroke:#181818;stroke-width:1.0;"/><polygon fill="#181818" points="1308.0731,360.6377,1317.2554,364.1994,1313.0673,360.3968,1316.87,356.2087,1308.0731,360.6377" style="stroke:#181818;stroke-width:1.0;"/></g><!--link ???? ?????? ?? 1? to ???? ??????--><g id="link_&#1057;&#1073;&#1086;&#1088; &#1076;&#1072;&#1085;&#1085;&#1099;&#1093; &#1080;&#1079; 1&#1057;_&#1041;&#1072;&#1079;&#1072; &#1076;&#1072;&#1085;&#1085;&#1099;&#1093;"><path d="M1786.21,230.09 C1766.94,243.54 1741.08,259.79 1716,270 C1629.035,305.395 1525.975,328.0675 1444.1912,341.93 C1403.2994,348.8613 1367.7266,353.59 1342.1442,356.6053 C1329.353,358.113 1319.0595,359.1923 1311.8475,359.9043 C1310.946,359.9933 1310.0926,360.0766 1309.2886,360.1543 C1308.8865,360.1931 1314.4696,359.66 1314.0924,359.6961 " fill="none" id="&#1057;&#1073;&#1086;&#1088; &#1076;&#1072;&#1085;&#1085;&#1099;&#1093; &#1080;&#1079; 1&#1057;-to-&#1041;&#1072;&#1079;&#1072; &#1076;&#1072;&#1085;&#1085;&#1099;&#1093;" style="stroke:#181818;stroke-width:1.0;"/><polygon fill="#181818" points="1308.1196,360.2665,1317.4591,363.3927,1313.0969,359.7911,1316.6985,355.4289,1308.1196,360.2665" style="stroke:#181818;stroke-width:1.0;"/></g><!--link ???? ?????? ?? ????? ???????? to ???? ??????--><g id="link_&#1057;&#1073;&#1086;&#1088; &#1076;&#1072;&#1085;&#1085;&#1099;&#1093; &#1089;&#1086; &#1089;&#1083;&#1091;&#1078;&#1073; &#1076;&#1086;&#1089;&#1090;&#1072;&#1074;&#1082;&#1080;_&#1041;&#1072;&#1079;&#1072; &#1076;&#1072;&#1085;&#1085;&#1099;&#1093;"><path d="M1532.13,230.06 C1494.645,251.2 1437.825,283.25 1389.7838,310.35 C1365.7631,323.9 1343.9372,336.2125 1327.8202,345.305 C1319.7616,349.8512 1318.3559,350.6441 1313.5912,353.3325 " fill="none" id="&#1057;&#1073;&#1086;&#1088; &#1076;&#1072;&#1085;&#1085;&#1099;&#1093; &#1089;&#1086; &#1089;&#1083;&#1091;&#1078;&#1073; &#1076;&#1086;&#1089;&#1090;&#1072;&#1074;&#1082;&#1080;-to-&#1041;&#1072;&#1079;&#1072; &#1076;&#1072;&#1085;&#1085;&#1099;&#1093;" style="stroke:#181818;stroke-width:1.0;"/><polygon fill="#181818" points="1308.3656,356.2809,1318.1696,355.342,1312.7202,353.8239,1314.2383,348.3746,1308.3656,356.2809" style="stroke:#181818;stroke-width:1.0;"/></g><!--link ?????????????? to ???? ??????--><g id="link_&#1056;&#1077;&#1085;&#1090;&#1072;&#1073;&#1077;&#1083;&#1100;&#1085;&#1086;&#1089;&#1090;&#1100;_&#1041;&#1072;&#1079;&#1072; &#1076;&#1072;&#1085;&#1085;&#1099;&#1093;"><path d="M1300,230.06 C1300,240.63 1300,253.9275 1300,267.97 C1300,274.9913 1300,282.1988 1300,289.3447 C1300,290.2379 1300,291.1302 1300,292.021 C1300,292.4665 1300,286.9115 1300,287.3562 " fill="none" id="&#1056;&#1077;&#1085;&#1090;&#1072;&#1073;&#1077;&#1083;&#1100;&#1085;&#1086;&#1089;&#1090;&#1100;-to-&#1041;&#1072;&#1079;&#1072; &#1076;&#1072;&#1085;&#1085;&#1099;&#1093;" style="stroke:#181818;stroke-width:1.0;"/><polygon fill="#181818" points="1300,293.3562,1304,284.3562,1300,288.3562,1296,284.3562,1300,293.3562" style="stroke:#181818;stroke-width:1.0;"/></g><!--link ABC-?????? to ???? ??????--><g id="link_ABC-&#1072;&#1085;&#1072;&#1083;&#1080;&#1079;_&#1041;&#1072;&#1079;&#1072; &#1076;&#1072;&#1085;&#1085;&#1099;&#1093;"><path d="M1151.59,230.18 C1166.1,244.2 1186.46,261.04 1208,270 C1223.07,276.27 1268.81,267.15 1281,278 C1284.4225,281.0475 1287.2947,284.5741 1289.6997,288.419 C1290.3009,289.3802 1290.873,290.3613 1291.4171,291.3598 C1291.6892,291.8591 1291.9543,292.3627 1292.2126,292.8703 C1292.3417,293.1241 1289.822,287.9945 1289.9477,288.2503 " fill="none" id="ABC-&#1072;&#1085;&#1072;&#1083;&#1080;&#1079;-to-&#1041;&#1072;&#1079;&#1072; &#1076;&#1072;&#1085;&#1085;&#1099;&#1093;" style="stroke:#181818;stroke-width:1.0;"/><polygon fill="#181818" points="1292.5949,293.6347,1292.2138,283.7933,1290.3889,289.1477,1285.0345,287.3228,1292.5949,293.6347" style="stroke:#181818;stroke-width:1.0;"/></g><!--reverse link ???? ?????? to ???????-??????--><g id="link_&#1041;&#1072;&#1079;&#1072; &#1076;&#1072;&#1085;&#1085;&#1099;&#1093;_&#1055;&#1088;&#1080;&#1073;&#1099;&#1083;&#1100;-&#1091;&#1073;&#1099;&#1090;&#1082;&#1080;"><path d="M1290.4288,288.2678 C1290.3003,288.0152 1292.6602,292.7514 1292.5281,292.5009 C1292.2641,292 1291.9929,291.5035 1291.7145,291.0118 C1291.1576,290.0282 1290.5715,289.0635 1289.9548,288.1204 C1287.4881,284.3477 1284.5325,280.9188 1281,278 C1261.46,261.86 1077.1,277.86 1053,270 C1027.78,261.78 1003.11,244.51 985.52,230.13 " fill="none" id="&#1041;&#1072;&#1079;&#1072; &#1076;&#1072;&#1085;&#1085;&#1099;&#1093;-backto-&#1055;&#1088;&#1080;&#1073;&#1099;&#1083;&#1100;-&#1091;&#1073;&#1099;&#1090;&#1082;&#1080;" style="stroke:#181818;stroke-width:1.0;"/><polygon fill="#181818" points="1293.1103,293.6352,1292.6663,283.7964,1290.8757,289.1624,1285.5097,287.3718,1293.1103,293.6352" style="stroke:#181818;stroke-width:1.0;"/></g><!--link ????????????? ?????? ?????? to ???? ?????? ?? ?????????????--><g id="link_&#1055;&#1077;&#1088;&#1080;&#1086;&#1076;&#1080;&#1095;&#1077;&#1089;&#1082;&#1080;&#1081; &#1080;&#1084;&#1087;&#1086;&#1088;&#1090; &#1076;&#1072;&#1085;&#1085;&#1099;&#1093;_&#1057;&#1073;&#1086;&#1088; &#1076;&#1072;&#1085;&#1085;&#1099;&#1093; &#1080;&#1079; &#1084;&#1072;&#1088;&#1082;&#1077;&#1090;&#1087;&#1083;&#1077;&#1081;&#1089;&#1086;&#1074;"><path d="M1865.6865,93.1264 C1883.5865,102.8164 1899.22,111.4 1918,122 C1953.19,141.86 1987.6967,162.0638 2016.1467,178.9038 " fill="none" id="&#1055;&#1077;&#1088;&#1080;&#1086;&#1076;&#1080;&#1095;&#1077;&#1089;&#1082;&#1080;&#1081; &#1080;&#1084;&#1087;&#1086;&#1088;&#1090; &#1076;&#1072;&#1085;&#1085;&#1099;&#1093;-&#1057;&#1073;&#1086;&#1088; &#1076;&#1072;&#1085;&#1085;&#1099;&#1093; &#1080;&#1079; &#1084;&#1072;&#1088;&#1082;&#1077;&#1090;&#1087;&#1083;&#1077;&#1081;&#1089;&#1086;&#1074;" style="stroke:#181818;stroke-width:1.0;"/><polygon fill="#181818" points="1860.41,90.27,1866.4205,98.0722,1864.8071,92.6503,1870.229,91.0369,1860.41,90.27" style="stroke:#181818;stroke-width:1.0;"/><polygon fill="#181818" points="2021.31,181.96,2015.6026,173.9335,2017.0073,179.4131,2011.5276,180.8178,2021.31,181.96" style="stroke:#181818;stroke-width:1.0;"/></g><!--link ????????????? ?????? ?????? to ???? ?????? ?? ????? ????????--><g id="link_&#1055;&#1077;&#1088;&#1080;&#1086;&#1076;&#1080;&#1095;&#1077;&#1089;&#1082;&#1080;&#1081; &#1080;&#1084;&#1087;&#1086;&#1088;&#1090; &#1076;&#1072;&#1085;&#1085;&#1099;&#1093;_&#1057;&#1073;&#1086;&#1088; &#1076;&#1072;&#1085;&#1085;&#1099;&#1093; &#1089;&#1086; &#1089;&#1083;&#1091;&#1078;&#1073; &#1076;&#1086;&#1089;&#1090;&#1072;&#1074;&#1082;&#1080;"><path d="M1769.2976,92.9822 C1751.4776,102.7422 1735.82,111.4 1717,122 C1681.55,141.96 1646.6465,162.0934 1617.7965,178.8734 " fill="none" id="&#1055;&#1077;&#1088;&#1080;&#1086;&#1076;&#1080;&#1095;&#1077;&#1089;&#1082;&#1080;&#1081; &#1080;&#1084;&#1087;&#1086;&#1088;&#1090; &#1076;&#1072;&#1085;&#1085;&#1099;&#1093;-&#1057;&#1073;&#1086;&#1088; &#1076;&#1072;&#1085;&#1085;&#1099;&#1093; &#1089;&#1086; &#1089;&#1083;&#1091;&#1078;&#1073; &#1076;&#1086;&#1089;&#1090;&#1072;&#1074;&#1082;&#1080;" style="stroke:#181818;stroke-width:1.0;"/><polygon fill="#181818" points="1774.56,90.1,1764.7449,90.9151,1770.1747,92.5018,1768.5879,97.9316,1774.56,90.1" style="stroke:#181818;stroke-width:1.0;"/><polygon fill="#181818" points="1612.61,181.89,1622.4009,180.8227,1616.9321,179.3761,1618.3787,173.9074,1612.61,181.89" style="stroke:#181818;stroke-width:1.0;"/></g><!--link ????????????? ?????? ?????? to ???? ?????? ?? 1?--><g id="link_&#1055;&#1077;&#1088;&#1080;&#1086;&#1076;&#1080;&#1095;&#1077;&#1089;&#1082;&#1080;&#1081; &#1080;&#1084;&#1087;&#1086;&#1088;&#1090; &#1076;&#1072;&#1085;&#1085;&#1099;&#1093;_&#1057;&#1073;&#1086;&#1088; &#1076;&#1072;&#1085;&#1085;&#1099;&#1093; &#1080;&#1079; 1&#1057;"><path d="M1817,96.1 C1817,121.57 1817,150.32 1817,175.83 " fill="none" id="&#1055;&#1077;&#1088;&#1080;&#1086;&#1076;&#1080;&#1095;&#1077;&#1089;&#1082;&#1080;&#1081; &#1080;&#1084;&#1087;&#1086;&#1088;&#1090; &#1076;&#1072;&#1085;&#1085;&#1099;&#1093;-&#1057;&#1073;&#1086;&#1088; &#1076;&#1072;&#1085;&#1085;&#1099;&#1093; &#1080;&#1079; 1&#1057;" style="stroke:#181818;stroke-width:1.0;"/><polygon fill="#181818" points="1817,90.1,1813,99.1,1817,95.1,1821,99.1,1817,90.1" style="stroke:#181818;stroke-width:1.0;"/><polygon fill="#181818" points="1817,181.83,1821,172.83,1817,176.83,1813,172.83,1817,181.83" style="stroke:#181818;stroke-width:1.0;"/></g><!--SRC=[jLIxJW915EttAoRqMzWR4xIoipSKn1WB6tfZmaCb1X8VCT548s3KUbT1bWMMNxZtZpntXa7O1LP8QCZEuvnxxhbdAEIFJlCdnof3zzGXtwM0Xboc3XVv0XizBcNKcQFK8JMnR9D78Ou3Bb94NrWD0UWeREcbsSxf- -yKOJb8tCLscQkeKCP6n2MXCuXdtAsYV8rwYa80V54ZDnMDX5n388syd7FkE0MhFNkmhw2jppVnYoXizJUmw7D5IblL9TmEy8jQYHQc-UaEOhguf0qOYaI-jBnl5iSrqyQZc2G0kz74QScqp3LKLN15weJQX17rZT603AmL3sDdF527TlCLC_emdv_IXEL_cSScXpCzF9d1qhVunrTm83Ajo4m6MBIv0d1W-sh1VanmfcS5L7UH_Cda5oEtgBNaYd383wP4F-JBOSo5cOPk0VH4iGwas2kJ32GyatQuFXtVeURoyOK3cpwkQqdPtJrNQz6Kr3Kw6-Wp81yc0U624PyWcOn4pYFKri7s5WYQpdnYB0q0zDCmmUDh048bQHDlkFeNtuxMWiRYtGReToHsoaEPCbHNMkdXgctNtObdUiMdh0p5_wOZxFCUbsLPyT6kcTfniRb2dBGyhmDEJNeAwR8mg-NOHCvJIisV3dAIyZhMIwmDu7f_FXkecVwVjAb69Lk_]--></g></svg>